HIERARCHY
ROOT Hips
{
	OFFSET 0.00000 0.00000 0.00000
	CHANNELS 6 Xposition Yposition Zposition Zrotation Yrotation Xrotation 
	JOINT LHipJoint
	{
		OFFSET 0 0 0
		CHANNELS 3 Zrotation Yrotation Xrotation
		JOINT LeftUpLeg
		{
			OFFSET 1.56857 -1.73443 1.15205
			CHANNELS 3 Zrotation Yrotation Xrotation
			JOINT LeftLeg
			{
				OFFSET 2.39362 -6.57643 0.00000
				CHANNELS 3 Zrotation Yrotation Xrotation
				JOINT LeftFoot
				{
					OFFSET 2.50952 -6.89485 0.00000
					CHANNELS 3 Zrotation Yrotation Xrotation
					JOINT LeftToeBase
					{
						OFFSET 0.17171 -0.47178 1.88682
						CHANNELS 3 Zrotation Yrotation Xrotation
						End Site
						{
							OFFSET 0.00000 -0.00000 0.98146
						}
					}
				}
			}
		}
	}
	JOINT RHipJoint
	{
		OFFSET 0 0 0
		CHANNELS 3 Zrotation Yrotation Xrotation
		JOINT RightUpLeg
		{
			OFFSET -1.28153 -1.73443 1.15205
			CHANNELS 3 Zrotation Yrotation Xrotation
			JOINT RightLeg
			{
				OFFSET -2.26861 -6.23296 0.00000
				CHANNELS 3 Zrotation Yrotation Xrotation
				JOINT RightFoot
				{
					OFFSET -2.54143 -6.98254 0.00000
					CHANNELS 3 Zrotation Yrotation Xrotation
					JOINT RightToeBase
					{
						OFFSET -0.23309 -0.64041 1.93119
						CHANNELS 3 Zrotation Yrotation Xrotation
						End Site
						{
							OFFSET -0.00000 -0.00000 1.02013
						}
					}
				}
			}
		}
	}
	JOINT LowerBack
	{
		OFFSET 0 0 0
		CHANNELS 3 Zrotation Yrotation Xrotation
		JOINT Spine
		{
			OFFSET -0.07096 2.10460 -0.27878
			CHANNELS 3 Zrotation Yrotation Xrotation
			JOINT Spine1
			{
				OFFSET -0.00826 2.13662 -0.08279
				CHANNELS 3 Zrotation Yrotation Xrotation
				JOINT Neck
				{
					OFFSET 0 0 0
					CHANNELS 3 Zrotation Yrotation Xrotation
					JOINT Neck1
					{
						OFFSET 0.03239 1.77799 0.24435
						CHANNELS 3 Zrotation Yrotation Xrotation
						JOINT Head
						{
							OFFSET 0.01026 1.74194 -0.49664
							CHANNELS 3 Zrotation Yrotation Xrotation
							End Site
							{
								OFFSET 0.00170 1.83057 -0.19653
							}
						}
					}
				}
				JOINT LeftShoulder
				{
					OFFSET 0 0 0
					CHANNELS 3 Zrotation Yrotation Xrotation
					JOINT LeftArm
					{
						OFFSET 3.19178 1.35907 -0.31412
						CHANNELS 3 Zrotation Yrotation Xrotation
						JOINT LeftForeArm
						{
							OFFSET 4.85247 -0.00000 -0.00000
							CHANNELS 3 Zrotation Yrotation Xrotation
							JOINT LeftHand
							{
								OFFSET 3.55584 -0.00000 0.00000
								CHANNELS 3 Zrotation Yrotation Xrotation
								JOINT LeftFingerBase
								{
									OFFSET 0 0 0
									CHANNELS 3 Zrotation Yrotation Xrotation
									JOINT LeftHandIndex1
									{
										OFFSET 0.69320 -0.00000 0.00000
										CHANNELS 3 Zrotation Yrotation Xrotation
										End Site
										{
											OFFSET 0.55888 -0.00000 0.00000
										}
									}
								}
								JOINT LThumb
								{
									OFFSET 0 0 0
									CHANNELS 3 Zrotation Yrotation Xrotation
									End Site
									{
										OFFSET 0.56741 -0.00000 0.56741
									}
								}
							}
						}
					}
				}
				JOINT RightShoulder
				{
					OFFSET 0 0 0
					CHANNELS 3 Zrotation Yrotation Xrotation
					JOINT RightArm
					{
						OFFSET -3.28999 1.24191 -0.26899
						CHANNELS 3 Zrotation Yrotation Xrotation
						JOINT RightForeArm
						{
							OFFSET -4.64462 -0.00000 0.00000
							CHANNELS 3 Zrotation Yrotation Xrotation
							JOINT RightHand
							{
								OFFSET -3.40703 -0.00000 0.00000
								CHANNELS 3 Zrotation Yrotation Xrotation
								JOINT RightFingerBase
								{
									OFFSET 0 0 0
									CHANNELS 3 Zrotation Yrotation Xrotation
									JOINT RightHandIndex1
									{
										OFFSET -0.61958 -0.00000 0.00000
										CHANNELS 3 Zrotation Yrotation Xrotation
										End Site
										{
											OFFSET -0.49952 -0.00000 0.00000
										}
									}
								}
								JOINT RThumb
								{
									OFFSET 0 0 0
									CHANNELS 3 Zrotation Yrotation Xrotation
									End Site
									{
										OFFSET -0.50715 -0.00000 0.50715
									}
								}
							}
						}
					}
				}
			}
		}
	}
}
MOTION
Frames: 5
Frame Time: .0083333
-12.3499 16.0181 0.9055 100.3340 75.3989 100.7100 0.0000 0.0000 0.0000 -35.7333 6.1464 24.4499 0.3276 3.6786 10.1743 1.4731 -4.9949 -21.8603 1.7280 -8.2750 -23.5524 0.0000 0.0000 0.0000 -2.9565 5.4211 -32.9330 -1.4042 -7.4958 21.1927 -0.3555 1.9799 -10.7496 -0.6949 -5.3289 14.8489 -18.4201 -1.3035 9.3525 -1.6199 -3.2492 2.8663 8.8854 -1.5983 -1.1967 4.4352 3.9462 -23.9225 -2.8882 4.4966 15.8224 -1.0601 2.0502 9.0405 -0.0000 0.0000 0.0000 -77.7864 -19.9802 40.9112 28.8826 -39.9162 -10.6853 -0.0000 0.0000 -4.5361 24.5025 -27.1231 -11.7385 -7.1250 0.0000 -0.0000 -3.3468 0.6474 3.3144 -0.0000 0.0000 0.0000 84.5826 -18.7153 15.3266 -15.5306 24.8801 -3.4461 0.0000 0.0000 3.3397 -10.7514 -31.0234 5.5893 7.1250 -0.0000 -0.0000 23.9267 -59.8269 -8.9680
-12.1096 16.0062 0.9113 100.1870 75.3633 100.3510 0.0000 0.0000 0.0000 -35.7854 6.2787 25.0909 0.3809 3.9634 10.9738 1.4022 -4.8941 -21.3178 1.7957 -8.4270 -24.0186 0.0000 0.0000 0.0000 -2.7504 5.3095 -32.6595 -1.5581 -7.8776 22.3430 -0.2859 1.1231 -9.7665 -0.6362 -5.1032 14.2030 -18.2686 -1.3223 9.0219 -1.6746 -3.1529 3.1069 8.7111 -1.5982 -0.7873 4.5835 3.9949 -24.0821 -2.9988 4.5272 15.7813 -1.1157 2.0593 9.0608 0.0000 0.0000 0.0000 -77.7203 -19.9073 41.1000 28.9560 -39.9815 -10.7324 -0.0000 0.0000 -4.8262 24.7169 -26.9419 -11.7807 -7.1250 0.0000 -0.0000 -3.1943 0.7924 3.1548 0.0000 0.0000 0.0000 84.6720 -18.3872 15.2494 -15.3662 24.6538 -3.3772 0.0000 0.0000 3.5850 -10.8017 -31.1028 5.6288 7.1250 -0.0000 -0.0000 23.9405 -59.9103 -9.0217
-11.8794 15.9960 0.9305 99.9764 76.0963 100.0930 0.0000 0.0000 0.0000 -35.0099 6.0970 25.5700 0.4431 4.2708 11.8399 1.3278 -4.5353 -20.7641 1.9689 -8.8010 -25.1747 0.0000 0.0000 0.0000 -1.8152 6.0563 -32.3705 -1.6815 -8.1685 23.2272 -0.2264 -0.1993 -9.0621 -0.8471 -5.8704 16.4088 -17.5262 -1.2735 9.1643 -1.4257 -3.0887 2.9567 8.5836 -1.5389 -1.0874 4.6301 4.0367 -24.1829 -3.1493 4.6039 16.0334 -1.1617 2.0791 9.1742 0.0000 0.0000 0.0000 -77.6688 -19.2889 41.6943 29.0203 -40.0387 -10.7738 -0.0000 0.0000 -5.3775 25.0251 -26.7072 -11.8495 -7.1250 0.0000 -0.0000 -2.9781 0.9739 2.9310 0.0000 0.0000 0.0000 84.6263 -18.3040 15.1028 -15.1030 24.2894 -3.2682 0.0000 0.0000 4.1185 -10.8123 -31.5832 5.7120 7.1250 -0.0000 -0.0000 24.3357 -60.3461 -9.4364
-11.6609 15.9896 0.9547 100.1240 76.9828 100.2840 0.0000 0.0000 0.0000 -33.9944 5.8010 25.8301 0.5256 4.6458 12.9011 1.2183 -4.3148 -19.8823 2.0976 -9.0665 -26.0035 0.0000 0.0000 0.0000 -0.7494 6.8163 -32.3188 -1.8278 -8.4977 24.2363 -0.1970 -0.8596 -8.7428 -1.0186 -6.4210 18.0109 -16.6802 -1.2583 9.6016 -1.0830 -3.1413 2.5911 8.5285 -1.5002 -1.7546 4.6551 4.1222 -24.0116 -3.3627 4.7724 16.1501 -1.2161 2.1366 9.1997 0.0000 0.0000 0.0000 -77.9709 -18.2700 41.7073 29.0816 -40.0931 -10.8132 -0.0000 0.0000 -5.4678 25.0494 -26.8363 -11.9138 -7.1250 0.0000 -0.0000 -2.9817 0.8330 2.9420 0.0000 0.0000 0.0000 84.5319 -18.5081 15.1005 -14.9866 24.1274 -3.2204 0.0000 0.0000 4.5982 -10.8754 -31.7398 5.7712 7.1250 -0.0000 -0.0000 24.4053 -60.5019 -9.5565
-11.4389 15.9931 0.9775 100.6130 77.8487 100.8200 0.0000 0.0000 0.0000 -32.9590 5.5343 25.9313 0.6341 5.0948 14.1790 1.0844 -3.9218 -18.7658 2.2424 -9.3536 -26.9079 0.0000 0.0000 0.0000 0.3039 7.4203 -32.2821 -1.9813 -8.8271 25.2559 -0.1710 -0.9507 -8.2180 -0.9442 -6.1888 17.3332 -15.7871 -1.3362 9.5234 -0.8023 -3.1584 2.5476 8.3374 -1.5125 -1.7954 4.7569 4.2127 -23.8859 -3.5388 4.9012 15.9851 -1.2761 2.1849 9.1339 -0.0000 0.0000 0.0000 -78.4662 -17.5081 41.0544 29.1877 -40.1869 -10.8816 -0.0000 0.0000 -4.8967 25.0655 -27.0395 -12.0034 -7.1250 0.0000 -0.0000 -3.0006 0.6158 2.9723 -0.0000 0.0000 0.0000 84.5876 -18.1554 14.8539 -14.7834 23.8436 -3.1379 0.0000 0.0000 5.3142 -10.7654 -31.8144 5.7238 7.1250 -0.0000 -0.0000 24.5845 -60.5428 -9.6558
